# xmcd
#
# Track frame offsets: 
#        150
#        8996
#        34198
#        53018
#
# Disc length: 1040 seconds
#
# Revision: 0
# Processed by: cddbd v1.5.1PL0 Copyright (c) Steve Scherf et al.
# Submitted via: ExactAudioCopy v0.95a5
#
DISCID=28040e04
DTITLE=NOBODYKNOWS+ - MEBAE
DYEAR=2005
DGENRE=JPop
TTITLE0="Theme from nobodyknows+ pt10"
TTITLE1=MEBAE
TTITLE2=MAGNUM IMAIKE
TTITLE3=MEBAE(inst)
EXTD=
EXTT0=
EXTT1=
EXTT2=
EXTT3=
PLAYORDER=
